<svg id="Layer_1" height="58" viewBox="0 0 512 512" width="68" xmlns="http://www.w3.org/2000/svg" data-name="Layer 1"><path d="m227.33 97.99a57.194 57.194 0 0 0 -6.31-.34h-63.65c-1.33 0-2.65.04-3.96.13a59.375 59.375 0 0 0 -55.4 59.24v278.61a59.367 59.367 0 0 0 59.36 59.37h63.65a59.369 59.369 0 0 0 59.37-59.37v-278.61a59.362 59.362 0 0 0 -53.06-59.03z" fill="#4ca987"/><path d="m128.01 435.63v-278.61a59.375 59.375 0 0 1 55.4-59.24c1.31-.09 2.63-.13 3.96-.13h-30c-1.33 0-2.65.04-3.96.13a59.375 59.375 0 0 0 -55.4 59.24v278.61a59.367 59.367 0 0 0 59.36 59.37h30a59.367 59.367 0 0 1 -59.36-59.37z" fill="#428c6e"/><path d="m371.45 240.84h16.82v22.03h-16.82z" fill="#5fa8ed"/><path d="m341.31 218.07h38.46v22.77h-38.46z" fill="#6d7486"/><path d="m347.56 262.87v22.31l25.96.23v-22.54z" fill="#b0b5ca"/><path d="m325.99 74.58a46.694 46.694 0 0 1 46.63 46.79l-.05 96.7h-23.01v-96.23a26.721 26.721 0 0 0 -26.55-26.76l-95.68-.48v-15.02a11.152 11.152 0 0 0 -1.17-5z" fill="#b0b5ca"/><path d="m349.92 240.84h21.53v22.03h-21.53z" fill="#4689d3"/><path d="m349.92 262.87v-22.03h-16.81v22.03" fill="#5fa8ed"/><path d="m210.48 17h21.81v30.05h-21.81z" fill="#5fa8ed"/><path d="m226.16 74.58a11.2 11.2 0 0 0 -10.02-6.21h-51.55a11.192 11.192 0 0 0 -11.18 11.21v18.2c1.31-.09 2.63-.13 3.96-.13h63.65a57.194 57.194 0 0 1 6.31.34v-18.41a11.152 11.152 0 0 0 -1.17-5z" fill="#6d7486"/><path d="m170.25 17h40.23v30.05h-40.23z" fill="#4689d3"/><path d="m174.89 47.05h30.95v21.32h-30.95z" fill="#b0b5ca"/><path d="m148.45 17h21.8v30.05h-21.8z" fill="#5fa8ed"/><path d="m98.01 386.46h182.38v30.04h-182.38z" fill="#e77187"/><path d="m98.01 172.93h182.38v30.03h-182.38z" fill="#e77187"/><path d="m347.56 284.18a53.95 53.95 0 1 1 -41.4 52.48 54.374 54.374 0 0 1 41.4-52.48z" fill="#f3ce7d"/><ellipse cx="360.08" cy="336.66" fill="#a0eaea" rx="35.57" ry="35.66"/><path d="m98.01 386.46h30v30.04h-30z" fill="#bc6174"/><path d="m98.01 172.93h30v30.03h-30z" fill="#bc6174"/><path d="m354.51 336.66a35.661 35.661 0 0 1 20.57-32.334 35.66 35.66 0 1 0 0 64.668 35.661 35.661 0 0 1 -20.57-32.334z" fill="#80c1bf"/><g fill="#284268"><path d="m318.511 336.661a41.569 41.569 0 1 0 41.568-41.661 41.663 41.663 0 0 0 -41.568 41.661zm71.137 0a29.569 29.569 0 1 1 -29.569-29.661 29.649 29.649 0 0 1 29.569 29.661z"/><path d="m359.911 309.787a6 6 0 0 0 -5.96 6.04l.128 19.372a6 6 0 0 0 3.156 5.243l13.439 7.233a6 6 0 0 0 5.687-10.567l-10.305-5.546-.1-15.814a6 6 0 0 0 -6-5.961z"/><path d="m157.373 501h63.651a65.442 65.442 0 0 0 65.368-65.367v-278.611a65.372 65.372 0 0 0 -32.192-56.287l68.778.346a20.766 20.766 0 0 1 20.582 20.756v90.237h-2.249a6 6 0 0 0 -6 6v16.77h-2.2a6 6 0 0 0 -6 6v22.024a6 6 0 0 0 6 6h8.456v10.8a59.922 59.922 0 1 0 37.96.314v-11.114h8.75a6 6 0 0 0 6-6v-22.024a6 6 0 0 0 -6-6h-2.5v-16.77a6 6 0 0 0 -6-6h-1.2l.051-90.7a52.7 52.7 0 0 0 -52.639-52.793h-96.643a17.145 17.145 0 0 0 -13.2-6.211h-4.3v-9.318h20.444a6 6 0 0 0 6-6v-30.052a6 6 0 0 0 -6-6h-83.84a6 6 0 0 0 -6 6v30.052a6 6 0 0 0 6 6h20.444v9.315h-4.3a17.221 17.221 0 0 0 -17.188 17.216v12.831a65.47 65.47 0 0 0 -55.4 64.608v278.611a65.441 65.441 0 0 0 65.367 65.367zm59.108-478h9.807v18.052h-9.807zm-52.226 18.052h-9.807v-18.052h9.807zm174.851 215.816v-10.024h4.818v10.024zm68.888 79.793a47.915 47.915 0 1 1 -47.915-47.936 47.979 47.979 0 0 1 47.915 47.936zm-40.472-67.793v8.332a58.575 58.575 0 0 0 -13.96-.119v-8.217zm-11.6-12v-10.024h9.531v10.024zm21.531-10.024h4.817v10.024h-4.817zm-3.683-12h-26.459v-10.77h26.461zm-140.44-154.266h92.655a40.7 40.7 0 0 1 40.639 40.786l-.051 90.71h-11.013v-90.237a32.792 32.792 0 0 0 -32.522-32.756l-89.708-.451zm-57.075-57.578h28.226v18.052h-28.226zm23.589 30.052v9.315h-18.952v-9.315zm-40.438 26.531a5.208 5.208 0 0 1 5.188-5.216h51.549a5.208 5.208 0 0 1 5.187 5.216v12.08c-.1 0-.2-.008-.306-.008h-61.618zm-55.4 77.439a53.427 53.427 0 0 1 53.367-53.367h63.651a53.428 53.428 0 0 1 53.368 53.367v9.91h-170.386zm0 21.91h170.386v18.033h-170.386zm0 30.033h170.386v171.5h-170.386zm0 183.5h170.386v18.035h-170.386zm0 30.033h170.386v13.135a53.428 53.428 0 0 1 -53.368 53.367h-63.651a53.427 53.427 0 0 1 -53.367-53.367z"/><path d="m128.022 254.4a6 6 0 0 0 -6 6v89.162a6 6 0 0 0 12 0v-89.162a6 6 0 0 0 -6-6z"/><path d="m128.022 229.086a6 6 0 0 0 -6 6v5.146a6 6 0 0 0 12 0v-5.146a6 6 0 0 0 -6-6z"/></g></svg>